<?xml version="1.0" encoding="UTF-8" standalone="no"?>
<!-- Created with Inkscape (http://www.inkscape.org/) -->

<svg
   xmlns:dc="http://purl.org/dc/elements/1.1/"
   xmlns:cc="http://creativecommons.org/ns#"
   xmlns:rdf="http://www.w3.org/1999/02/22-rdf-syntax-ns#"
   xmlns:svg="http://www.w3.org/2000/svg"
   xmlns="http://www.w3.org/2000/svg"
   xmlns:sodipodi="http://sodipodi.sourceforge.net/DTD/sodipodi-0.dtd"
   xmlns:inkscape="http://www.inkscape.org/namespaces/inkscape"
   version="1.1"
   id="svg311"
   width="24"
   height="24"
   viewBox="0 0 24 24"
   sodipodi:docname="screen_rotate_lock_24.svg"
   inkscape:version="0.92.3 (2405546, 2018-03-11)">
  <metadata
     id="metadata317">
    <rdf:RDF>
      <cc:Work
         rdf:about="">
        <dc:format>image/svg+xml</dc:format>
        <dc:type
           rdf:resource="http://purl.org/dc/dcmitype/StillImage" />
        <dc:title></dc:title>
      </cc:Work>
    </rdf:RDF>
  </metadata>
  <defs
     id="defs315" />
  <sodipodi:namedview
     pagecolor="#ffffff"
     bordercolor="#666666"
     borderopacity="1"
     objecttolerance="10"
     gridtolerance="10"
     guidetolerance="10"
     inkscape:pageopacity="0"
     inkscape:pageshadow="2"
     inkscape:window-width="784"
     inkscape:window-height="480"
     id="namedview313"
     showgrid="false"
     inkscape:zoom="13.615384"
     inkscape:cx="16.052354"
     inkscape:cy="14.174304"
     inkscape:window-x="141"
     inkscape:window-y="107"
     inkscape:window-maximized="0"
     inkscape:current-layer="svg311"
     fit-margin-top="0"
     fit-margin-left="0"
     fit-margin-right="0"
     fit-margin-bottom="0"
     inkscape:pagecheckerboard="true" />
  <path
     style="fill:#ffffff;stroke-width:0.52340567"
     d="M 9.6717824,23.602641 C 7.3569507,23.039099 4.7313873,21.560477 3.2480654,19.985039 1.7880167,18.434319 0.01787931,14.896029 2.7286545e-4,13.493096 -0.02222442,11.700556 1.3522368,12.613837 1.9695468,14.801611 c 0.6700144,2.37456 1.5810138,3.637993 3.9500347,5.478168 1.2177976,0.945943 1.6576691,1.041257 2.4684975,0.534886 0.8323527,-0.519814 1.2349544,-0.37827 2.574538,0.905133 2.409539,2.308485 2.130344,2.715725 -1.2908346,1.882843 z M 8.2384059,16.371828 C 4.8058361,12.989319 1.7570313,9.7803834 1.4632833,9.2408616 1.0117281,8.4114977 1.5217821,7.6633451 4.7639842,4.3993588 6.8731174,2.2760545 8.9727826,0.53880523 9.4299069,0.53880523 c 0.457124,0 1.4731881,0.67015917 2.2579201,1.48924297 1.257356,1.3123976 1.33149,1.5683316 0.624286,2.1552582 C 11.64292,4.7386883 11.339865,4.6434581 10.487724,3.6100233 L 9.4658331,2.3707252 6.4354893,5.3788818 3.4051456,8.3870385 9.4047273,14.403689 15.40431,20.420339 18.164657,17.69428 c 1.518191,-1.499332 2.760347,-2.951091 2.760347,-3.226131 0,-0.275039 -0.394838,-0.936365 -0.877422,-1.469612 -0.669847,-0.740172 -0.732576,-1.114388 -0.265154,-1.58181 0.467422,-0.467421 0.984561,-0.255592 2.185939,0.8954 0.865515,0.829219 1.573666,1.763915 1.573666,2.077102 0,0.832046 -7.485208,8.132615 -8.338295,8.132615 -0.398364,0 -3.532762,-2.767507 -6.9653321,-6.150016 z M 15.015909,9.1106007 C 14.440298,8.5349894 14.577273,3.1558338 15.16754,3.1558338 c 0.287876,0 0.523409,-0.4761146 0.523409,-1.0580327 0,-1.44920394 2.116389,-2.38716445 3.59763,-1.594429 0.612161,0.32761833 1.11302,1.0584479 1.11302,1.6240657 0,0.565618 0.247287,1.028396 0.549525,1.028396 0.338249,0 0.489174,1.1570905 0.392555,3.0095827 l -0.156971,3.0095827 -2.899512,0.1536874 c -1.594732,0.084528 -3.06681,-0.01361 -3.271287,-0.2180859 z m 4.762645,-6.8707268 c -0.245642,-1.27550924 -3.218918,-1.27550924 -3.464559,0 -0.14196,0.7371388 0.19623,0.9159599 1.73228,0.9159599 1.536048,0 1.874238,-0.1788211 1.732279,-0.9159599 z"
     id="path609"
     inkscape:connector-curvature="0" />
</svg>
